<?xml version="1.0" encoding="iso-8859-1"?>
<!-- Uploaded to: SVG Repo, www.svgrepo.com, Generator: SVG Repo Mixer Tools -->
<svg version="1.1" id="Layer_1" width="32" heigt="32" xmlns="http://www.w3.org/2000/svg" xmlns:xlink="http://www.w3.org/1999/xlink" 
	 viewBox="0 0 511.472 511.472" xml:space="preserve">
<g>
	<rect x="246.376" y="265.656" style="fill:#25B6D2;" width="16" height="133.504"/>
	<rect x="246.376" y="263.656" style="fill:#25B6D2;" width="16" height="167.864"/>
	<polygon style="fill:#25B6D2;" points="415.416,263.496 97.608,263.496 97.608,84.704 113.608,84.704 113.608,247.496 
		399.416,247.496 399.416,84.704 415.416,84.704 	"/>
</g>
<polygon points="230.08,500.64 282.944,500.64 279.168,474.208 233.856,474.208 "/>
<rect x="216.912" y="500.616" width="79.288" height="10.856"/>
<path style="fill:#F2B851;" d="M347.12,455.328v-102.4c0-5.976-4.888-10.856-10.856-10.856H176.76
	c-5.976,0-10.856,4.888-10.856,10.856v102.408H347.12V455.328z"/>
<path d="M165.904,455.328v9.44c0,5.976,4.888,10.856,10.856,10.856h159.504c5.976,0,10.856-4.888,10.856-10.856v-9.44H165.904z"/>
<polygon points="77.632,158.56 130.488,158.56 126.712,132.136 81.408,132.136 "/>
<rect x="64.416" y="158.56" width="79.288" height="10.856"/>
<path style="fill:#32BEA6;" d="M194.672,113.256v-102.4C194.672,4.88,189.784,0,183.816,0H24.312
	c-5.976,0-10.856,4.888-10.856,10.856v102.4H194.672z"/>
<path d="M13.448,113.256v9.44c0,5.976,4.888,10.856,10.856,10.856h159.504c5.976,0,10.856-4.888,10.856-10.856v-9.44
	C194.664,113.256,13.448,113.256,13.448,113.256z"/>
<polygon points="380.984,158.56 433.84,158.56 430.064,132.136 384.76,132.136 "/>
<rect x="367.768" y="158.56" width="79.288" height="10.856"/>
<path style="fill:#E04F5F;" d="M498.024,113.256v-102.4C498.024,4.88,493.136,0,487.168,0H327.664
	c-5.976,0-10.856,4.888-10.856,10.856v102.4H498.024z"/>
<path d="M316.8,113.256v9.44c0,5.976,4.888,10.856,10.856,10.856H487.16c5.976,0,10.856-4.888,10.856-10.856v-9.44
	C498.016,113.256,316.8,113.256,316.8,113.256z"/>
</svg>